<?xml version="1.0" encoding="iso-8859-1"?>
<!-- Generator: Adobe Illustrator 16.0.0, SVG Export Plug-In . SVG Version: 6.00 Build 0)  -->
<!DOCTYPE svg PUBLIC "-//W3C//DTD SVG 1.1//EN" "http://www.w3.org/Graphics/SVG/1.1/DTD/svg11.dtd">
<svg version="1.1" id="Capa_1" xmlns="http://www.w3.org/2000/svg" xmlns:xlink="http://www.w3.org/1999/xlink" x="0px" y="0px"
	 width="97.349px" height="97.348px" viewBox="0 0 97.349 97.348" style="enable-background:new 0 0 97.349 97.348;"
	 xml:space="preserve">
<g>
	<g fill="#ffffff">
		<path d="M94.201,38.978c0.736,0.295,1.408,0.813,2.01,1.55c0.484,0.602,0.812,1.341,0.979,2.217
			c0.106,0.58,0.159,1.429,0.159,2.547l-0.03,10.873h-4.623V45.181c0-0.654-0.104-1.192-0.314-1.614
			c-0.398-0.801-1.141-1.203-2.216-1.203c-1.244,0-2.104,0.518-2.58,1.552c-0.242,0.549-0.363,1.207-0.363,1.978v10.271h-4.543
			V45.893c0-1.024-0.104-1.768-0.315-2.231c-0.379-0.833-1.123-1.25-2.23-1.25c-1.287,0-2.15,0.417-2.596,1.25
			c-0.242,0.475-0.363,1.182-0.363,2.121v10.382h-4.572V38.946h4.383v2.516c0.56-0.896,1.088-1.535,1.584-1.914
			c0.875-0.676,2.01-1.014,3.4-1.014c1.318,0,2.385,0.29,3.197,0.872c0.654,0.538,1.148,1.229,1.486,2.072
			c0.592-1.013,1.324-1.756,2.201-2.23c0.928-0.474,1.961-0.712,3.102-0.712C92.714,38.534,93.462,38.682,94.201,38.978z"/>
		<path d="M14.855,36.779H4.765v4.955h10.213v4.05H4.765v5.997h10.23v4.194H0V32.649h14.855V36.779z"/>
		<path d="M70.27,36.779H60.181v4.955h10.214v4.05H60.181v5.997H70.41v4.194H55.417V32.649H70.27V36.779z"/>
		<path d="M24.134,56.283l-7.457-18.008h5.017l4.884,12.724l4.677-12.724h4.796l-6.979,17.59L25.667,64.7h-4.896L24.134,56.283z"/>
		<path d="M48.281,39.076c1.204,0.539,2.195,1.389,2.98,2.551c0.705,1.025,1.165,2.214,1.375,3.565
			c0.121,0.793,0.169,1.934,0.147,3.424H40.222c0.07,1.729,0.672,2.943,1.805,3.641c0.688,0.434,1.516,0.647,2.484,0.647
			c1.028,0,1.863-0.263,2.506-0.791c0.35-0.284,0.658-0.681,0.929-1.187h4.604c-0.122,1.022-0.681,2.062-1.672,3.119
			c-1.546,1.676-3.709,2.516-6.489,2.516c-2.297,0-4.321-0.707-6.077-2.125c-1.754-1.414-2.632-3.715-2.632-6.903
			c0-2.988,0.792-5.28,2.376-6.875c1.584-1.595,3.641-2.392,6.17-2.392C45.726,38.266,47.078,38.537,48.281,39.076z M41.534,42.971
			c-0.637,0.657-1.038,1.547-1.203,2.671h7.772c-0.081-1.198-0.483-2.106-1.202-2.727c-0.72-0.619-1.611-0.929-2.675-0.929
			C43.07,41.987,42.172,42.314,41.534,42.971z"/>
	</g>
</g>
<g>
</g>
<g>
</g>
<g>
</g>
<g>
</g>
<g>
</g>
<g>
</g>
<g>
</g>
<g>
</g>
<g>
</g>
<g>
</g>
<g>
</g>
<g>
</g>
<g>
</g>
<g>
</g>
<g>
</g>
</svg>
