<?xml version="1.0" standalone="no"?>
<!DOCTYPE svg PUBLIC "-//W3C//DTD SVG 20010904//EN"
 "http://www.w3.org/TR/2001/REC-SVG-20010904/DTD/svg10.dtd">
<svg version="1.0" xmlns="http://www.w3.org/2000/svg"
 width="332.000000pt" height="331.000000pt" viewBox="0 0 332.000000 331.000000"
 preserveAspectRatio="xMidYMid meet">
<metadata>
Created by potrace 1.15, written by Peter Selinger 2001-2017
</metadata>
<g transform="translate(0.000000,331.000000) scale(0.100000,-0.100000)"
fill="#080808" stroke="none">
<path d="M1445 3180 c-160 -25 -320 -95 -432 -189 -85 -71 -134 -134 -184
-237 -52 -106 -68 -168 -75 -289 -8 -128 11 -221 68 -335 34 -71 58 -102 142
-186 l101 -100 -60 -29 c-82 -39 -205 -162 -242 -241 -56 -120 -27 -266 70
-350 125 -107 363 -176 702 -204 350 -28 512 -73 597 -168 89 -98 38 -224
-117 -292 -91 -39 -183 -53 -360 -53 -195 1 -285 16 -382 64 -84 40 -115 91
-115 183 l0 63 -236 5 c-130 3 -238 5 -239 4 -1 -1 -7 -33 -13 -72 -37 -236
102 -429 375 -523 224 -77 643 -103 910 -56 214 38 411 129 529 243 76 74 120
142 152 239 24 71 26 88 21 183 -6 116 -24 179 -72 255 -48 75 -111 130 -200
175 -150 74 -291 99 -685 125 -312 20 -392 35 -447 87 -47 44 -38 119 18 152
53 31 91 37 294 46 110 5 234 14 275 20 218 35 404 144 506 297 133 201 145
518 28 734 -17 30 -24 53 -18 58 19 19 93 32 207 38 l117 6 0 178 0 179 -75 0
c-163 0 -313 -52 -401 -138 l-49 -48 -40 29 c-63 46 -167 95 -262 123 -71 21
-113 27 -218 30 -71 1 -157 -1 -190 -6z m333 -434 c140 -72 221 -232 192 -380
-16 -83 -49 -143 -109 -199 -67 -63 -128 -89 -218 -95 -227 -15 -406 158 -391
378 9 116 72 222 165 277 72 42 120 53 218 50 75 -3 99 -8 143 -31z"/>
</g>
</svg>
