<?xml version="1.0" standalone="no"?>
<!DOCTYPE svg PUBLIC "-//W3C//DTD SVG 20010904//EN"
 "http://www.w3.org/TR/2001/REC-SVG-20010904/DTD/svg10.dtd">
<svg version="1.0" xmlns="http://www.w3.org/2000/svg"
 width="512.000000pt" height="512.000000pt" viewBox="0 0 512.000000 512.000000"
 preserveAspectRatio="xMidYMid meet">
<metadata>
Created by potrace 1.15, written by Peter Selinger 2001-2017
</metadata>
<g transform="translate(0.000000,512.000000) scale(0.100000,-0.100000)"
fill="#181818" stroke="none">
<path d="M2370 5114 c-329 -29 -577 -89 -848 -205 -540 -231 -1005 -677 -1267
-1214 -124 -254 -184 -443 -227 -717 -31 -193 -33 -615 -5 -808 41 -281 107
-491 232 -745 142 -289 284 -485 516 -710 211 -204 392 -332 654 -460 361
-178 708 -255 1134 -255 491 1 879 104 1304 348 53 31 97 60 97 64 0 16 -135
187 -148 187 -7 1 -56 -24 -107 -55 -383 -225 -864 -338 -1298 -304 -569 43
-1057 261 -1466 655 -529 510 -793 1272 -686 1986 100 670 478 1260 1045 1629
222 144 537 273 791 324 199 40 313 49 534 43 215 -5 377 -29 559 -82 640
-185 1165 -625 1457 -1220 109 -223 173 -424 216 -680 25 -150 25 -525 0 -667
-25 -142 -31 -129 82 -161 119 -33 129 -33 135 -5 14 65 27 180 37 326 17 259
-7 560 -65 797 -145 590 -497 1104 -1004 1469 -322 232 -699 382 -1097 437
-143 19 -469 32 -575 23z"/>
<path d="M2315 4639 c-127 -13 -144 -18 -186 -56 -69 -62 -174 -253 -233 -422
-76 -217 -105 -460 -86 -714 17 -225 82 -586 107 -594 6 -2 55 51 109 119 567
714 1082 1072 1702 1184 101 18 103 19 97 43 -7 29 -10 32 -139 118 -265 177
-583 289 -915 323 -118 11 -338 11 -456 -1z"/>
<path d="M1749 4492 c-525 -237 -894 -604 -1110 -1105 -64 -148 -64 -166 6
-304 150 -296 407 -544 737 -709 207 -104 598 -241 598 -210 0 2 -39 139 -86
303 -106 369 -176 651 -211 853 -22 128 -27 186 -27 335 -1 268 35 420 181
762 23 57 43 107 43 113 0 17 -21 11 -131 -38z"/>
<path d="M3850 4014 c-14 -2 -59 -9 -100 -15 -293 -41 -596 -174 -885 -388
-146 -109 -396 -333 -384 -345 2 -3 74 -16 159 -31 612 -103 1051 -259 1403
-497 166 -113 367 -299 486 -451 29 -37 58 -66 64 -64 6 2 20 28 31 58 18 49
20 77 20 284 0 212 -2 240 -28 365 -67 325 -201 630 -387 881 -131 176 -177
209 -289 207 -36 0 -76 -2 -90 -4z"/>
<path d="M3134 2953 c3 -10 44 -152 91 -315 280 -980 284 -1110 59 -1840 -30
-97 -54 -179 -54 -182 0 -16 48 -1 151 44 377 167 681 417 896 738 121 183
253 471 253 554 0 36 -11 61 -65 147 -234 373 -588 628 -1133 815 -178 61
-207 66 -198 39z"/>
<path d="M495 2898 c-20 -50 -40 -348 -31 -467 27 -350 148 -699 346 -1001 76
-115 132 -176 178 -192 26 -9 96 -13 227 -13 159 1 207 4 294 23 399 87 843
330 1024 560 44 56 57 82 40 82 -32 0 -371 58 -498 85 -688 148 -1162 433
-1489 898 -26 37 -54 67 -61 67 -7 0 -21 -19 -30 -42z"/>
<path d="M3079 2163 c-265 -325 -523 -569 -804 -757 -116 -78 -362 -202 -486
-245 -167 -57 -414 -101 -574 -101 -36 0 -65 -4 -65 -8 0 -18 134 -136 235
-207 203 -142 428 -236 805 -337 99 -26 137 -31 275 -35 107 -3 204 0 293 11
123 14 136 17 180 49 60 42 116 122 186 262 118 234 167 459 167 753 0 189
-10 301 -41 477 -30 172 -51 255 -64 255 -6 0 -55 -53 -107 -117z"/>
</g>
</svg>
